<mxfile host="Electron" modified="2023-08-25T09:19:02.591Z" agent="Mozilla/5.0 (X11; Linux x86_64) AppleWebKit/537.36 (KHTML, like Gecko) draw.io/21.3.7 Chrome/112.0.5615.204 Electron/24.5.0 Safari/537.36" etag="KOb6lO1yKJe_IaMPXPA3" version="21.3.7" type="device">
  <diagram name="Page-1" id="1EYMIYDTeL4FvQMsoPMc">
    <mxGraphModel dx="1048" dy="1015" grid="1" gridSize="10" guides="1" tooltips="1" connect="1" arrows="1" fold="1" page="0" pageScale="1" pageWidth="827" pageHeight="1169" background="none" math="0" shadow="0">
      <root>
        <mxCell id="0" />
        <mxCell id="1" parent="0" />
        <mxCell id="wDakd_mpY2LgvO2oMfsj-7" value="" style="group" parent="1" vertex="1" connectable="0">
          <mxGeometry x="810" y="230" width="110" height="130" as="geometry" />
        </mxCell>
        <mxCell id="wDakd_mpY2LgvO2oMfsj-1" value="" style="fontColor=#0066CC;verticalAlign=top;verticalLabelPosition=bottom;labelPosition=center;align=center;html=1;outlineConnect=0;fillColor=#CCCCCC;strokeColor=#6881B3;gradientColor=none;gradientDirection=north;strokeWidth=2;shape=mxgraph.networks.storage;" parent="wDakd_mpY2LgvO2oMfsj-7" vertex="1">
          <mxGeometry x="5" width="100" height="100" as="geometry" />
        </mxCell>
        <mxCell id="wDakd_mpY2LgvO2oMfsj-3" value="&lt;div&gt;ISIS Archive&lt;/div&gt;" style="text;html=1;strokeColor=none;fillColor=none;align=center;verticalAlign=middle;whiteSpace=wrap;rounded=0;" parent="wDakd_mpY2LgvO2oMfsj-7" vertex="1">
          <mxGeometry y="100" width="110" height="30" as="geometry" />
        </mxCell>
        <mxCell id="wDakd_mpY2LgvO2oMfsj-19" value="" style="group" parent="1" vertex="1" connectable="0">
          <mxGeometry x="-260" y="320" width="100" height="100" as="geometry" />
        </mxCell>
        <mxCell id="wDakd_mpY2LgvO2oMfsj-16" value="" style="whiteSpace=wrap;html=1;aspect=fixed;" parent="wDakd_mpY2LgvO2oMfsj-19" vertex="1">
          <mxGeometry width="80" height="80" as="geometry" />
        </mxCell>
        <mxCell id="wDakd_mpY2LgvO2oMfsj-17" value="" style="whiteSpace=wrap;html=1;aspect=fixed;" parent="wDakd_mpY2LgvO2oMfsj-19" vertex="1">
          <mxGeometry x="10" y="10" width="80" height="80" as="geometry" />
        </mxCell>
        <mxCell id="wDakd_mpY2LgvO2oMfsj-18" value="Digitisers" style="whiteSpace=wrap;html=1;aspect=fixed;" parent="wDakd_mpY2LgvO2oMfsj-19" vertex="1">
          <mxGeometry x="20" y="20" width="80" height="80" as="geometry" />
        </mxCell>
        <mxCell id="wDakd_mpY2LgvO2oMfsj-31" value="EPICS" style="rounded=0;whiteSpace=wrap;html=1;" parent="1" vertex="1">
          <mxGeometry x="40" y="80" width="480" height="40" as="geometry" />
        </mxCell>
        <mxCell id="wDakd_mpY2LgvO2oMfsj-38" style="edgeStyle=orthogonalEdgeStyle;rounded=0;orthogonalLoop=1;jettySize=auto;html=1;exitX=0.5;exitY=0;exitDx=0;exitDy=0;entryX=0.5;entryY=1;entryDx=0;entryDy=0;fillColor=#f8cecc;strokeColor=#b85450;" parent="1" source="wDakd_mpY2LgvO2oMfsj-32" target="wDakd_mpY2LgvO2oMfsj-35" edge="1">
          <mxGeometry relative="1" as="geometry" />
        </mxCell>
        <mxCell id="wDakd_mpY2LgvO2oMfsj-46" style="edgeStyle=orthogonalEdgeStyle;rounded=0;orthogonalLoop=1;jettySize=auto;html=1;exitX=0.75;exitY=0;exitDx=0;exitDy=0;entryX=0;entryY=0.5;entryDx=0;entryDy=0;" parent="1" source="wDakd_mpY2LgvO2oMfsj-32" target="wDakd_mpY2LgvO2oMfsj-44" edge="1">
          <mxGeometry relative="1" as="geometry" />
        </mxCell>
        <mxCell id="wDakd_mpY2LgvO2oMfsj-47" value="start/stop/meta/experimental" style="edgeLabel;html=1;align=center;verticalAlign=middle;resizable=0;points=[];" parent="wDakd_mpY2LgvO2oMfsj-46" vertex="1" connectable="0">
          <mxGeometry x="0.5042" relative="1" as="geometry">
            <mxPoint as="offset" />
          </mxGeometry>
        </mxCell>
        <mxCell id="wDakd_mpY2LgvO2oMfsj-52" style="edgeStyle=orthogonalEdgeStyle;rounded=0;orthogonalLoop=1;jettySize=auto;html=1;exitX=0.75;exitY=1;exitDx=0;exitDy=0;fillColor=#d5e8d4;strokeColor=#82b366;" parent="1" source="wDakd_mpY2LgvO2oMfsj-32" target="wDakd_mpY2LgvO2oMfsj-51" edge="1">
          <mxGeometry relative="1" as="geometry" />
        </mxCell>
        <mxCell id="wDakd_mpY2LgvO2oMfsj-63" style="edgeStyle=orthogonalEdgeStyle;rounded=0;orthogonalLoop=1;jettySize=auto;html=1;exitX=0.163;exitY=0.975;exitDx=0;exitDy=0;entryX=1;entryY=0.25;entryDx=0;entryDy=0;fillColor=#d5e8d4;strokeColor=#82b366;exitPerimeter=0;" parent="1" source="wDakd_mpY2LgvO2oMfsj-32" target="wDakd_mpY2LgvO2oMfsj-61" edge="1">
          <mxGeometry relative="1" as="geometry" />
        </mxCell>
        <mxCell id="wDakd_mpY2LgvO2oMfsj-64" style="edgeStyle=orthogonalEdgeStyle;rounded=0;orthogonalLoop=1;jettySize=auto;html=1;entryX=1;entryY=0.25;entryDx=0;entryDy=0;fillColor=#dae8fc;strokeColor=#6c8ebf;exitX=0.406;exitY=1.002;exitDx=0;exitDy=0;exitPerimeter=0;" parent="1" source="wDakd_mpY2LgvO2oMfsj-32" target="wDakd_mpY2LgvO2oMfsj-62" edge="1">
          <mxGeometry relative="1" as="geometry">
            <mxPoint x="240" y="670" as="sourcePoint" />
            <Array as="points">
              <mxPoint x="240" y="560" />
              <mxPoint x="240" y="815" />
            </Array>
          </mxGeometry>
        </mxCell>
        <mxCell id="wDakd_mpY2LgvO2oMfsj-32" value="&lt;div&gt;Kafka&lt;/div&gt;" style="rounded=0;whiteSpace=wrap;html=1;" parent="1" vertex="1">
          <mxGeometry x="40" y="520" width="480" height="40" as="geometry" />
        </mxCell>
        <mxCell id="wDakd_mpY2LgvO2oMfsj-33" style="edgeStyle=orthogonalEdgeStyle;rounded=0;orthogonalLoop=1;jettySize=auto;html=1;exitX=1;exitY=0.75;exitDx=0;exitDy=0;entryX=0.171;entryY=-0.025;entryDx=0;entryDy=0;fillColor=#d5e8d4;strokeColor=#82b366;entryPerimeter=0;" parent="1" source="wDakd_mpY2LgvO2oMfsj-18" target="wDakd_mpY2LgvO2oMfsj-32" edge="1">
          <mxGeometry relative="1" as="geometry" />
        </mxCell>
        <mxCell id="wDakd_mpY2LgvO2oMfsj-36" style="edgeStyle=orthogonalEdgeStyle;rounded=0;orthogonalLoop=1;jettySize=auto;html=1;exitX=0.5;exitY=0;exitDx=0;exitDy=0;entryX=0.5;entryY=1;entryDx=0;entryDy=0;fillColor=#f8cecc;strokeColor=#b85450;" parent="1" source="wDakd_mpY2LgvO2oMfsj-35" target="wDakd_mpY2LgvO2oMfsj-31" edge="1">
          <mxGeometry relative="1" as="geometry" />
        </mxCell>
        <mxCell id="wDakd_mpY2LgvO2oMfsj-35" value="Error Forwarder" style="whiteSpace=wrap;html=1;aspect=fixed;" parent="1" vertex="1">
          <mxGeometry x="240" y="280" width="80" height="80" as="geometry" />
        </mxCell>
        <mxCell id="wDakd_mpY2LgvO2oMfsj-40" style="edgeStyle=orthogonalEdgeStyle;rounded=0;orthogonalLoop=1;jettySize=auto;html=1;exitX=1;exitY=0.75;exitDx=0;exitDy=0;" parent="1" source="wDakd_mpY2LgvO2oMfsj-39" edge="1">
          <mxGeometry relative="1" as="geometry">
            <mxPoint x="180" y="520" as="targetPoint" />
          </mxGeometry>
        </mxCell>
        <mxCell id="wDakd_mpY2LgvO2oMfsj-41" value="start/stop/meta" style="edgeLabel;html=1;align=center;verticalAlign=middle;resizable=0;points=[];" parent="wDakd_mpY2LgvO2oMfsj-40" vertex="1" connectable="0">
          <mxGeometry x="-0.5947" y="-3" relative="1" as="geometry">
            <mxPoint y="-3" as="offset" />
          </mxGeometry>
        </mxCell>
        <mxCell id="4ZquWcomQjERfiKqLqWc-19" value="meta" style="edgeLabel;html=1;align=center;verticalAlign=middle;resizable=0;points=[];" vertex="1" connectable="0" parent="wDakd_mpY2LgvO2oMfsj-40">
          <mxGeometry x="-0.0822" y="7" relative="1" as="geometry">
            <mxPoint x="24" y="-26" as="offset" />
          </mxGeometry>
        </mxCell>
        <mxCell id="wDakd_mpY2LgvO2oMfsj-39" value="ICP" style="whiteSpace=wrap;html=1;aspect=fixed;" parent="1" vertex="1">
          <mxGeometry x="-120" y="200" width="80" height="80" as="geometry" />
        </mxCell>
        <mxCell id="wDakd_mpY2LgvO2oMfsj-44" value="File Writer" style="whiteSpace=wrap;html=1;aspect=fixed;" parent="1" vertex="1">
          <mxGeometry x="640" y="240" width="80" height="80" as="geometry" />
        </mxCell>
        <mxCell id="wDakd_mpY2LgvO2oMfsj-53" style="edgeStyle=orthogonalEdgeStyle;rounded=0;orthogonalLoop=1;jettySize=auto;html=1;entryX=0;entryY=0.5;entryDx=0;entryDy=0;entryPerimeter=0;" parent="1" source="wDakd_mpY2LgvO2oMfsj-51" target="wDakd_mpY2LgvO2oMfsj-50" edge="1">
          <mxGeometry relative="1" as="geometry" />
        </mxCell>
        <mxCell id="wDakd_mpY2LgvO2oMfsj-51" value="Trace Archiver" style="whiteSpace=wrap;html=1;aspect=fixed;" parent="1" vertex="1">
          <mxGeometry x="360" y="840" width="80" height="80" as="geometry" />
        </mxCell>
        <mxCell id="wDakd_mpY2LgvO2oMfsj-57" value="" style="fontColor=#0066CC;verticalAlign=top;verticalLabelPosition=bottom;labelPosition=center;align=center;html=1;outlineConnect=0;fillColor=#CCCCCC;strokeColor=#6881B3;gradientColor=none;gradientDirection=north;strokeWidth=2;shape=mxgraph.networks.monitor;" parent="1" vertex="1">
          <mxGeometry x="680" y="847.5" width="80" height="65" as="geometry" />
        </mxCell>
        <mxCell id="wDakd_mpY2LgvO2oMfsj-60" value="" style="group" parent="1" vertex="1" connectable="0">
          <mxGeometry x="510" y="830" width="100" height="130" as="geometry" />
        </mxCell>
        <mxCell id="wDakd_mpY2LgvO2oMfsj-50" value="" style="fontColor=#0066CC;verticalAlign=top;verticalLabelPosition=bottom;labelPosition=center;align=center;html=1;outlineConnect=0;fillColor=#CCCCCC;strokeColor=#6881B3;gradientColor=none;gradientDirection=north;strokeWidth=2;shape=mxgraph.networks.storage;" parent="wDakd_mpY2LgvO2oMfsj-60" vertex="1">
          <mxGeometry width="100" height="100" as="geometry" />
        </mxCell>
        <mxCell id="wDakd_mpY2LgvO2oMfsj-59" value="TDengine" style="text;html=1;strokeColor=none;fillColor=none;align=center;verticalAlign=middle;whiteSpace=wrap;rounded=0;" parent="wDakd_mpY2LgvO2oMfsj-60" vertex="1">
          <mxGeometry x="20" y="100" width="60" height="30" as="geometry" />
        </mxCell>
        <mxCell id="wDakd_mpY2LgvO2oMfsj-65" style="edgeStyle=orthogonalEdgeStyle;rounded=0;orthogonalLoop=1;jettySize=auto;html=1;exitX=1;exitY=0.5;exitDx=0;exitDy=0;fillColor=#dae8fc;strokeColor=#6c8ebf;" parent="1" source="wDakd_mpY2LgvO2oMfsj-61" edge="1">
          <mxGeometry relative="1" as="geometry">
            <mxPoint x="140" y="560" as="targetPoint" />
            <Array as="points">
              <mxPoint x="140" y="710" />
              <mxPoint x="140" y="560" />
            </Array>
          </mxGeometry>
        </mxCell>
        <mxCell id="wDakd_mpY2LgvO2oMfsj-61" value="&lt;div&gt;Event Formation&lt;/div&gt;" style="rounded=0;whiteSpace=wrap;html=1;" parent="1" vertex="1">
          <mxGeometry x="-120" y="680" width="120" height="60" as="geometry" />
        </mxCell>
        <mxCell id="wDakd_mpY2LgvO2oMfsj-66" style="edgeStyle=orthogonalEdgeStyle;rounded=0;orthogonalLoop=1;jettySize=auto;html=1;exitX=0.967;exitY=0.488;exitDx=0;exitDy=0;fillColor=#ffe6cc;strokeColor=#d79b00;entryX=0.459;entryY=0.94;entryDx=0;entryDy=0;entryPerimeter=0;exitPerimeter=0;" parent="1" source="wDakd_mpY2LgvO2oMfsj-62" edge="1" target="wDakd_mpY2LgvO2oMfsj-32">
          <mxGeometry relative="1" as="geometry">
            <mxPoint x="280" y="560" as="targetPoint" />
          </mxGeometry>
        </mxCell>
        <mxCell id="wDakd_mpY2LgvO2oMfsj-62" value="Event Binning" style="rounded=0;whiteSpace=wrap;html=1;" parent="1" vertex="1">
          <mxGeometry x="-120" y="800" width="120" height="60" as="geometry" />
        </mxCell>
        <mxCell id="wDakd_mpY2LgvO2oMfsj-67" value="&quot;Oscilloscope Mode&quot;" style="text;html=1;strokeColor=none;fillColor=none;align=center;verticalAlign=middle;whiteSpace=wrap;rounded=0;" parent="1" vertex="1">
          <mxGeometry x="649" y="912.5" width="150" height="30" as="geometry" />
        </mxCell>
        <mxCell id="gWjbYdfBhN-4RKWJ9eBt-1" value="" style="endArrow=classic;startArrow=classic;html=1;rounded=0;" parent="1" edge="1">
          <mxGeometry width="50" height="50" relative="1" as="geometry">
            <mxPoint x="680" y="480" as="sourcePoint" />
            <mxPoint x="720" y="480" as="targetPoint" />
          </mxGeometry>
        </mxCell>
        <mxCell id="gWjbYdfBhN-4RKWJ9eBt-2" value="Misc./Generic/Composite" style="text;html=1;strokeColor=none;fillColor=none;align=left;verticalAlign=middle;whiteSpace=wrap;rounded=0;" parent="1" vertex="1">
          <mxGeometry x="726" y="470" width="154" height="20" as="geometry" />
        </mxCell>
        <mxCell id="gWjbYdfBhN-4RKWJ9eBt-3" value="" style="endArrow=classic;startArrow=classic;html=1;rounded=0;fillColor=#d5e8d4;strokeColor=#82b366;" parent="1" edge="1">
          <mxGeometry width="50" height="50" relative="1" as="geometry">
            <mxPoint x="680" y="500" as="sourcePoint" />
            <mxPoint x="720" y="500" as="targetPoint" />
          </mxGeometry>
        </mxCell>
        <mxCell id="gWjbYdfBhN-4RKWJ9eBt-4" value="Trace" style="text;html=1;strokeColor=none;fillColor=none;align=left;verticalAlign=middle;whiteSpace=wrap;rounded=0;" parent="1" vertex="1">
          <mxGeometry x="726" y="490" width="60" height="20" as="geometry" />
        </mxCell>
        <mxCell id="gWjbYdfBhN-4RKWJ9eBt-5" value="" style="endArrow=classic;startArrow=classic;html=1;rounded=0;fillColor=#dae8fc;strokeColor=#6c8ebf;" parent="1" edge="1">
          <mxGeometry width="50" height="50" relative="1" as="geometry">
            <mxPoint x="680" y="520" as="sourcePoint" />
            <mxPoint x="720" y="520" as="targetPoint" />
          </mxGeometry>
        </mxCell>
        <mxCell id="gWjbYdfBhN-4RKWJ9eBt-6" value="Event" style="text;html=1;strokeColor=none;fillColor=none;align=left;verticalAlign=middle;whiteSpace=wrap;rounded=0;" parent="1" vertex="1">
          <mxGeometry x="726" y="510" width="60" height="20" as="geometry" />
        </mxCell>
        <mxCell id="gWjbYdfBhN-4RKWJ9eBt-7" value="" style="endArrow=classic;startArrow=classic;html=1;rounded=0;fillColor=#fff2cc;strokeColor=#d6b656;" parent="1" edge="1">
          <mxGeometry width="50" height="50" relative="1" as="geometry">
            <mxPoint x="680" y="540" as="sourcePoint" />
            <mxPoint x="720" y="540" as="targetPoint" />
          </mxGeometry>
        </mxCell>
        <mxCell id="gWjbYdfBhN-4RKWJ9eBt-8" value="Histogram" style="text;html=1;strokeColor=none;fillColor=none;align=left;verticalAlign=middle;whiteSpace=wrap;rounded=0;" parent="1" vertex="1">
          <mxGeometry x="726" y="530" width="60" height="20" as="geometry" />
        </mxCell>
        <mxCell id="gWjbYdfBhN-4RKWJ9eBt-9" value="" style="endArrow=classic;startArrow=classic;html=1;rounded=0;fillColor=#e1d5e7;strokeColor=#9673a6;" parent="1" edge="1">
          <mxGeometry width="50" height="50" relative="1" as="geometry">
            <mxPoint x="680" y="560" as="sourcePoint" />
            <mxPoint x="720" y="560" as="targetPoint" />
          </mxGeometry>
        </mxCell>
        <mxCell id="gWjbYdfBhN-4RKWJ9eBt-10" value="File" style="text;html=1;strokeColor=none;fillColor=none;align=left;verticalAlign=middle;whiteSpace=wrap;rounded=0;" parent="1" vertex="1">
          <mxGeometry x="726" y="550" width="60" height="20" as="geometry" />
        </mxCell>
        <mxCell id="4ZquWcomQjERfiKqLqWc-3" style="edgeStyle=orthogonalEdgeStyle;rounded=0;orthogonalLoop=1;jettySize=auto;html=1;exitX=1;exitY=0.5;exitDx=0;exitDy=0;exitPerimeter=0;" edge="1" parent="1" source="wDakd_mpY2LgvO2oMfsj-50" target="wDakd_mpY2LgvO2oMfsj-57">
          <mxGeometry relative="1" as="geometry" />
        </mxCell>
        <mxCell id="4ZquWcomQjERfiKqLqWc-5" value="" style="endArrow=classic;startArrow=classic;html=1;rounded=0;fillColor=#f8cecc;strokeColor=#b85450;" edge="1" parent="1">
          <mxGeometry width="50" height="50" relative="1" as="geometry">
            <mxPoint x="680" y="580" as="sourcePoint" />
            <mxPoint x="720" y="580" as="targetPoint" />
          </mxGeometry>
        </mxCell>
        <mxCell id="4ZquWcomQjERfiKqLqWc-6" value="Telemetry" style="text;html=1;strokeColor=none;fillColor=none;align=left;verticalAlign=middle;whiteSpace=wrap;rounded=0;" vertex="1" parent="1">
          <mxGeometry x="726" y="570" width="60" height="20" as="geometry" />
        </mxCell>
        <mxCell id="4ZquWcomQjERfiKqLqWc-7" value="" style="endArrow=classic;html=1;rounded=0;exitX=0;exitY=0.75;exitDx=0;exitDy=0;entryX=0.787;entryY=0.025;entryDx=0;entryDy=0;entryPerimeter=0;fillColor=#f8cecc;strokeColor=#b85450;" edge="1" parent="1" source="wDakd_mpY2LgvO2oMfsj-44" target="wDakd_mpY2LgvO2oMfsj-32">
          <mxGeometry width="50" height="50" relative="1" as="geometry">
            <mxPoint x="400" y="530" as="sourcePoint" />
            <mxPoint x="450" y="480" as="targetPoint" />
            <Array as="points">
              <mxPoint x="420" y="300" />
            </Array>
          </mxGeometry>
        </mxCell>
        <mxCell id="4ZquWcomQjERfiKqLqWc-8" value="" style="endArrow=classic;html=1;rounded=0;entryX=0.205;entryY=-0.06;entryDx=0;entryDy=0;entryPerimeter=0;exitX=1;exitY=0.5;exitDx=0;exitDy=0;fillColor=#f8cecc;strokeColor=#b85450;" edge="1" parent="1" source="wDakd_mpY2LgvO2oMfsj-18" target="wDakd_mpY2LgvO2oMfsj-32">
          <mxGeometry width="50" height="50" relative="1" as="geometry">
            <mxPoint x="-120" y="470" as="sourcePoint" />
            <mxPoint x="-60" y="455" as="targetPoint" />
            <Array as="points">
              <mxPoint x="140" y="380" />
            </Array>
          </mxGeometry>
        </mxCell>
        <mxCell id="4ZquWcomQjERfiKqLqWc-9" value="" style="endArrow=classic;html=1;rounded=0;entryX=0.25;entryY=1;entryDx=0;entryDy=0;exitX=1;exitY=0.75;exitDx=0;exitDy=0;fillColor=#f8cecc;strokeColor=#b85450;" edge="1" parent="1" source="wDakd_mpY2LgvO2oMfsj-61" target="wDakd_mpY2LgvO2oMfsj-32">
          <mxGeometry width="50" height="50" relative="1" as="geometry">
            <mxPoint x="310" y="670" as="sourcePoint" />
            <mxPoint x="360" y="620" as="targetPoint" />
            <Array as="points">
              <mxPoint x="160" y="725" />
            </Array>
          </mxGeometry>
        </mxCell>
        <mxCell id="4ZquWcomQjERfiKqLqWc-10" value="" style="endArrow=classic;html=1;rounded=0;exitX=1;exitY=0.75;exitDx=0;exitDy=0;entryX=0.5;entryY=1;entryDx=0;entryDy=0;fillColor=#f8cecc;strokeColor=#b85450;" edge="1" parent="1" source="wDakd_mpY2LgvO2oMfsj-62" target="wDakd_mpY2LgvO2oMfsj-32">
          <mxGeometry width="50" height="50" relative="1" as="geometry">
            <mxPoint x="490" y="480" as="sourcePoint" />
            <mxPoint x="540" y="430" as="targetPoint" />
            <Array as="points">
              <mxPoint x="280" y="845" />
            </Array>
          </mxGeometry>
        </mxCell>
        <mxCell id="4ZquWcomQjERfiKqLqWc-11" value="" style="endArrow=classic;html=1;rounded=0;exitX=0.75;exitY=0;exitDx=0;exitDy=0;fillColor=#f8cecc;strokeColor=#b85450;" edge="1" parent="1" source="wDakd_mpY2LgvO2oMfsj-51">
          <mxGeometry width="50" height="50" relative="1" as="geometry">
            <mxPoint x="500" y="470" as="sourcePoint" />
            <mxPoint x="420" y="560" as="targetPoint" />
          </mxGeometry>
        </mxCell>
        <mxCell id="4ZquWcomQjERfiKqLqWc-15" value="File Writer" style="whiteSpace=wrap;html=1;aspect=fixed;" vertex="1" parent="1">
          <mxGeometry x="650" y="250" width="80" height="80" as="geometry" />
        </mxCell>
        <mxCell id="4ZquWcomQjERfiKqLqWc-16" value="File Writer(s)" style="whiteSpace=wrap;html=1;aspect=fixed;" vertex="1" parent="1">
          <mxGeometry x="660" y="260" width="80" height="80" as="geometry" />
        </mxCell>
        <mxCell id="4ZquWcomQjERfiKqLqWc-17" value="" style="endArrow=classic;html=1;rounded=0;exitX=1;exitY=0.25;exitDx=0;exitDy=0;entryX=0;entryY=0.5;entryDx=0;entryDy=0;entryPerimeter=0;fillColor=#e1d5e7;strokeColor=#9673a6;" edge="1" parent="1" source="4ZquWcomQjERfiKqLqWc-16" target="wDakd_mpY2LgvO2oMfsj-1">
          <mxGeometry width="50" height="50" relative="1" as="geometry">
            <mxPoint x="810" y="180" as="sourcePoint" />
            <mxPoint x="860" y="130" as="targetPoint" />
          </mxGeometry>
        </mxCell>
        <mxCell id="4ZquWcomQjERfiKqLqWc-18" value="" style="endArrow=classic;html=1;rounded=0;exitX=0.329;exitY=1.04;exitDx=0;exitDy=0;exitPerimeter=0;" edge="1" parent="1" source="wDakd_mpY2LgvO2oMfsj-31">
          <mxGeometry width="50" height="50" relative="1" as="geometry">
            <mxPoint x="90" y="200" as="sourcePoint" />
            <mxPoint x="200" y="520" as="targetPoint" />
          </mxGeometry>
        </mxCell>
      </root>
    </mxGraphModel>
  </diagram>
</mxfile>
